<svg width="391" height="389" viewBox="0 0 391 389" fill="none" xmlns="http://www.w3.org/2000/svg">
<circle cx="194.923" cy="194.137" r="162" fill="url(#paint0_linear_14_59)"/>
<path d="M297.898 62.4806C281.201 71.3413 259.449 98.6981 259.449 98.6981C259.449 98.6981 258.739 105.767 262.841 110.134C266.943 114.501 272.107 115.404 277.793 112.387C277.793 112.387 313.187 87.5614 315.733 72.6025C316.221 69.7387 314.438 66.5647 309.695 62.4806C306.598 59.8137 304.512 58.9706 297.898 62.4806Z" fill="#B5A7B7"/>
<path fill-rule="evenodd" clip-rule="evenodd" d="M310.021 83.5245C307.079 75.0939 302.14 70.7745 291.477 66.5628C293.661 64.9743 295.819 63.584 297.898 62.4806C304.513 58.9706 306.598 59.8137 309.695 62.4806C314.438 66.5647 316.221 69.7387 315.733 72.6025C315.174 75.8895 313.028 79.6529 310.021 83.5245Z" fill="#220F22"/>
<path d="M297.898 62.4806C281.201 71.3413 259.449 98.6981 259.449 98.6981C259.449 98.6981 258.739 105.767 262.841 110.134C266.943 114.501 272.107 115.404 277.793 112.387C277.793 112.387 313.187 87.5614 315.733 72.6025C316.221 69.7387 314.438 66.5647 309.695 62.4806C306.598 59.8137 304.512 58.9706 297.898 62.4806Z" stroke="white" stroke-width="1.8578"/>
<path d="M356.976 110.539C338.09 109.743 310.526 120.583 310.526 120.583C310.526 120.583 306.339 126.324 307.671 132.165C309.002 138.006 313.001 141.396 319.432 141.667C319.432 141.667 359.943 139.157 369.702 127.538C371.571 125.314 374.215 120.658 372.188 114.737C370.864 110.87 364.457 110.854 356.976 110.539Z" fill="#B5A7B7"/>
<path fill-rule="evenodd" clip-rule="evenodd" d="M361.847 132.971C363.447 124.732 361.67 118.731 355.517 110.501C356.009 110.506 356.495 110.519 356.976 110.539C357.422 110.558 357.864 110.576 358.301 110.593C365.203 110.87 370.942 111.1 372.188 114.737C374.215 120.658 371.571 125.313 369.702 127.538C367.943 129.632 365.186 131.43 361.847 132.971Z" fill="#220F22"/>
<path d="M356.976 110.539C338.09 109.743 310.526 120.583 310.526 120.583C310.526 120.583 306.339 126.324 307.671 132.165C309.002 138.006 313.001 141.396 319.432 141.667C319.432 141.667 359.943 139.157 369.702 127.538C371.571 125.314 374.215 120.658 372.188 114.737C370.864 110.87 364.457 110.854 356.976 110.539Z" stroke="white" stroke-width="1.8578"/>
<path d="M265.612 22.6207C256.145 38.9817 254.369 72.3469 254.369 72.3469C254.369 72.3469 257.512 78.7186 263.304 80.249C269.096 81.7795 273.955 79.8097 277.179 74.2382C277.179 74.2382 294.857 38.177 289.092 24.1409C286.218 17.1452 282.255 9.33322 276.583 9.69359C272.504 9.95272 269.362 16.1396 265.612 22.6207Z" fill="#DCDCDC"/>
<path d="M74.9706 266.578C91.6672 257.717 125.884 223.819 125.884 223.819C125.884 223.819 117.097 225.414 110.76 222.999C104.424 220.584 101.289 219.026 101.097 216.532C101.097 216.532 63.5743 243.554 61.0287 258.513C60.5414 261.377 58.8867 263.532 63.6297 267.616C66.7269 270.283 68.3565 270.089 74.9706 266.578Z" fill="#B5A7B7"/>
<path fill-rule="evenodd" clip-rule="evenodd" d="M66.7338 247.666C75.6075 249.394 80.4423 255.319 81.8844 262.244C79.3765 263.999 77.0391 265.481 74.9706 266.578C68.3565 270.089 66.7269 270.283 63.6297 267.616C59.6615 264.199 60.1715 262.132 60.7294 259.871C60.8383 259.43 60.9491 258.981 61.0287 258.513C61.572 255.32 63.7087 251.578 66.7338 247.666Z" fill="#220F22"/>
<path d="M74.9706 266.578C91.6672 257.717 125.884 223.819 125.884 223.819C125.884 223.819 117.097 225.414 110.76 222.999C104.424 220.584 101.289 219.026 101.097 216.532C101.097 216.532 63.5743 243.554 61.0287 258.513C60.5414 261.377 58.8867 263.532 63.6297 267.616C66.7269 270.283 68.3565 270.089 74.9706 266.578Z" stroke="white" stroke-width="1.8578"/>
<path d="M80.3498 251.546C81.9289 259.72 102.179 263.529 108.403 262.321C114.626 261.114 120.478 257.77 120.478 257.77C120.478 257.77 124.841 266.571 130.139 267.802C136.146 269.197 146.488 261.114 146.488 261.114C149.395 263.977 151.149 265.158 155.312 263.715C155.312 263.715 156.329 268.901 161.35 271.61C171.901 277.304 189.681 261.114 189.681 261.114C189.681 261.114 189.31 268.824 214.019 261.114C234.083 254.853 229.252 241.235 229.252 241.235C229.252 241.235 249.251 247.166 260.185 238.356C273.097 227.952 268.638 218.942 268.638 218.942C268.638 218.942 305.612 212.254 310.16 201.2C313.362 193.417 310.16 182.529 310.16 182.529C310.16 182.529 324.345 177.997 327.623 168.781C332.216 155.869 323.907 140.914 323.907 140.914C323.907 140.914 330.555 105.794 316.383 103.665C311.091 102.87 308.488 106.173 308.488 106.173C308.488 106.173 303.657 88.6171 295.855 89.0815C292.987 89.2522 289.538 91.4038 289.538 91.4038C289.538 91.4038 290.484 81.7693 285.915 78.492C281.642 75.4267 268.638 74.1262 268.638 74.1262C268.638 74.1262 266.396 69.4635 262.879 68.5528C259.956 67.7962 256.469 68.9244 256.469 68.9244C256.469 68.9244 253.242 62.7475 248.759 60.5643C239.497 56.0529 228.853 54.5113 220.799 60.9358C212.746 67.3603 215.783 77.5631 215.783 77.5631C215.783 77.5631 193.954 71.0608 178.999 81.5574C173.373 85.5061 174.819 95.398 174.819 95.398C174.819 95.398 161.907 77.3774 137.756 95.398C123.592 105.966 127.631 120.014 127.631 120.014C127.631 120.014 113.697 120.2 100.321 147.602C95.8347 156.793 102.179 163.301 102.179 163.301C102.179 163.301 95.6629 170.706 94.8407 176.584C94.0377 182.324 94.8407 185.687 98.5563 190.053C98.5563 190.053 87.1308 199.063 85.273 205.937C84.037 210.51 88.3384 214.39 88.3384 214.39C88.3384 214.39 84.8313 216.91 84.3441 220.521C83.7366 225.023 88.3384 229.81 88.3384 229.81C82.9116 234.731 79.2552 245.88 80.3498 251.546Z" fill="#F8F8F8" stroke="#FFFAE1" stroke-width="0.18578"/>
<path d="M180.399 307.523C192.845 293.296 212.744 249.434 212.744 249.434C212.744 249.434 205.101 254.054 198.32 254.054C191.539 254.054 188.055 253.715 186.988 251.453C186.988 251.453 157.18 289.534 160.129 304.418C160.694 307.268 163.49 309.599 169.376 311.725C173.22 313.114 175.469 313.159 180.399 307.523Z" fill="#B5A7B7"/>
<path fill-rule="evenodd" clip-rule="evenodd" d="M162.475 289.453C173.523 288.014 179.608 290.527 185.626 300.359C183.94 303.037 182.189 305.478 180.399 307.523C175.469 313.159 173.22 313.114 169.376 311.725C163.49 309.599 160.693 307.268 160.129 304.418C159.357 300.524 160.446 295.197 162.475 289.453Z" fill="#220F22"/>
<path d="M180.399 307.523C192.845 293.296 212.744 249.434 212.744 249.434C212.744 249.434 205.101 254.054 198.32 254.054C191.539 254.054 188.055 253.715 186.988 251.453C186.988 251.453 157.18 289.534 160.129 304.418C160.694 307.268 163.49 309.599 169.376 311.725C173.22 313.114 175.469 313.159 180.399 307.523Z" stroke="white" stroke-width="1.8578"/>
<path d="M133.587 242.528C126.036 261.829 111.162 274.051 100.365 269.827C89.5672 265.603 86.9358 246.532 94.487 227.23C102.038 207.929 116.913 195.707 127.71 199.931C138.507 204.155 141.139 223.226 133.587 242.528Z" fill="#B5A7B7"/>
<path d="M96.2385 258.416C94.6097 258.483 94.7325 256.017 96.3465 256.206C99.4353 256.568 100.904 260.041 104.064 260.46C104.871 260.567 103.147 261.079 101.83 260.668C99.9854 260.093 98.2089 258.334 96.2385 258.416ZM103.851 260.737C103.445 260.838 103.35 260.498 103.479 260.46C105.059 259.999 106.725 258.827 107.141 258.464C109.526 256.387 111.335 253.481 113.957 251.677C114.886 251.037 116.154 252.017 115.621 253.071C115.195 253.914 113.347 254.701 112.571 255.28C109.906 257.267 108.31 259.628 103.851 260.737Z" fill="black"/>
<path d="M103.294 260.556C103.633 260.433 104.133 260.415 104.408 260.278C104.594 260.185 104.57 260.499 104.651 260.716C105.295 262.451 106.285 265.821 106.208 265.889C106.003 266.072 105.894 265.799 105.825 265.668C105.047 264.19 104.163 262.702 103.457 261.221C103.191 260.664 103.257 260.57 103.294 260.556ZM106.08 265.575C106.181 265.575 106.263 265.657 106.263 265.758C106.263 265.859 106.181 265.941 106.08 265.941C105.979 265.941 105.897 265.859 105.897 265.758C105.897 265.657 105.979 265.575 106.08 265.575Z" fill="black"/>
<path d="M134.857 237.754C135.377 238.756 134.1 240.45 132.006 241.537C129.911 242.624 127.792 242.693 127.272 241.691C126.752 240.689 128.028 238.996 130.123 237.909C132.218 236.822 134.337 236.753 134.857 237.754Z" fill="#A75288"/>
<path d="M133.302 235.026C132.245 238.978 129.59 241.7 127.373 241.107C125.155 240.514 124.215 236.829 125.272 232.878C126.33 228.926 128.984 226.204 131.202 226.797C133.419 227.39 134.36 231.075 133.302 235.026Z" fill="black"/>
<ellipse cx="144.891" cy="199.177" rx="4.92317" ry="19.5069" transform="rotate(39.205 144.891 199.177)" fill="#B5A7B7"/>
<ellipse cx="111.03" cy="192.113" rx="4.92317" ry="19.5069" transform="rotate(5.6113 111.03 192.113)" fill="#B5A7B7"/>
<path d="M180.764 182.529C168.038 167.666 157.263 162.186 138.406 162.186C132.99 162.704 112.554 167.097 109.796 173.518L154.755 182.529L178.999 247.552C178.999 247.552 184.64 242.39 189.403 237.52C193.49 233.34 193.49 197.391 180.764 182.529Z" fill="#110020" stroke="black" stroke-width="0.18578"/>
<path fill-rule="evenodd" clip-rule="evenodd" d="M79.9884 188.78C81.6973 200.16 92.2825 210.024 97.9989 210.024C98.2245 210.099 99.453 209.52 101.393 208.604C111.436 203.866 140.545 190.131 148.252 211.696C148.899 213.996 149.523 216.261 150.134 218.478C156.804 242.685 161.93 261.292 178.72 258.884C179.796 258.687 180.843 258.417 181.859 258.077C186.264 249.554 188.752 239.88 188.752 229.624C188.752 195.354 160.971 167.574 126.702 167.574C108.073 167.574 91.3622 175.782 79.9884 188.78Z" fill="#130E2E"/>
<path d="M97.9989 210.024L98.0283 209.936L98.014 209.931H97.9989V210.024ZM79.9884 188.78L79.9185 188.719L79.8901 188.751L79.8965 188.794L79.9884 188.78ZM101.393 208.604L101.433 208.688L101.393 208.604ZM148.252 211.696L148.342 211.671L148.34 211.665L148.252 211.696ZM150.134 218.478L150.224 218.454L150.134 218.478ZM178.72 258.884L178.734 258.976L178.737 258.976L178.72 258.884ZM181.859 258.077L181.889 258.165L181.924 258.153L181.942 258.119L181.859 258.077ZM97.9989 209.931C96.5939 209.931 94.8776 209.324 93.0616 208.226C91.2473 207.128 89.3415 205.546 87.5592 203.607C83.9939 199.728 80.9313 194.433 80.0802 188.766L79.8965 188.794C80.7544 194.506 83.8388 199.834 87.4224 203.732C89.2146 205.682 91.1338 207.277 92.9654 208.385C94.7952 209.491 96.5457 210.117 97.9989 210.117V209.931ZM101.353 208.52C100.383 208.978 99.5923 209.351 99.0162 209.601C98.7279 209.725 98.4957 209.818 98.3227 209.875C98.236 209.903 98.1666 209.922 98.1138 209.931C98.0874 209.936 98.0669 209.938 98.0515 209.938C98.0438 209.938 98.0381 209.938 98.0341 209.937C98.0299 209.937 98.0282 209.936 98.0283 209.936L97.9695 210.112C98.0213 210.13 98.085 210.125 98.1461 210.114C98.2113 210.102 98.29 210.081 98.3805 210.051C98.5619 209.992 98.8004 209.896 99.0899 209.771C99.6695 209.52 100.463 209.146 101.433 208.688L101.353 208.52ZM148.34 211.665C146.405 206.251 143.123 203.045 139.127 201.363C135.136 199.683 130.442 199.528 125.686 200.194C116.174 201.527 106.373 206.152 101.353 208.52L101.433 208.688C106.456 206.318 116.232 201.707 125.711 200.378C130.451 199.714 135.107 199.873 139.055 201.535C143 203.195 146.246 206.359 148.165 211.728L148.34 211.665ZM150.224 218.454C149.613 216.236 148.989 213.971 148.342 211.671L148.163 211.721C148.81 214.021 149.434 216.285 150.045 218.503L150.224 218.454ZM178.707 258.792C174.529 259.392 171.082 258.683 168.157 256.911C165.229 255.138 162.815 252.296 160.713 248.615C156.506 241.251 153.56 230.561 150.224 218.454L150.045 218.503C153.378 230.602 156.33 241.318 160.551 248.708C162.663 252.404 165.096 255.275 168.06 257.07C171.027 258.867 174.517 259.581 178.733 258.976L178.707 258.792ZM181.83 257.989C180.818 258.327 179.775 258.597 178.704 258.793L178.737 258.976C179.817 258.778 180.868 258.506 181.889 258.165L181.83 257.989ZM188.66 229.624C188.66 239.864 186.175 249.524 181.777 258.034L181.942 258.119C186.354 249.584 188.845 239.895 188.845 229.624H188.66ZM126.702 167.666C160.92 167.666 188.66 195.406 188.66 229.624H188.845C188.845 195.303 161.023 167.481 126.702 167.481V167.666ZM80.0583 188.841C91.4153 175.863 108.101 167.666 126.702 167.666V167.481C108.046 167.481 91.3092 175.702 79.9185 188.719L80.0583 188.841Z" fill="black"/>
<circle cx="126.702" cy="229.624" r="61.1216" fill="#AA99C1" fill-opacity="0.21" stroke="url(#paint1_linear_14_59)" stroke-width="1.8578"/>
<circle cx="78.492" cy="219.127" r="10.4966" fill="#FFCE74"/>
<circle cx="76.82" cy="219.127" r="7.70987" fill="white"/>
<circle cx="73.8475" cy="236.591" r="4.73739" fill="#FF7474"/>
<defs>
<linearGradient id="paint0_linear_14_59" x1="183.132" y1="356.506" x2="179.132" y2="43.0057" gradientUnits="userSpaceOnUse">
<stop stop-color="#B91B5A"/>
<stop offset="1" stop-color="#341620"/>
</linearGradient>
<linearGradient id="paint1_linear_14_59" x1="83.6939" y1="280.156" x2="167.016" y2="203.986" gradientUnits="userSpaceOnUse">
<stop stop-color="white"/>
<stop offset="1" stop-color="#403B5A"/>
</linearGradient>
</defs>
</svg>
